<?xml version="1.0" encoding="UTF-8" standalone="no"?>
<!-- Created with Inkscape (http://www.inkscape.org/) -->

<svg
   xmlns:dc="http://purl.org/dc/elements/1.1/"
   xmlns:cc="http://creativecommons.org/ns#"
   xmlns:rdf="http://www.w3.org/1999/02/22-rdf-syntax-ns#"
   xmlns:svg="http://www.w3.org/2000/svg"
   xmlns="http://www.w3.org/2000/svg"
   xmlns:sodipodi="http://sodipodi.sourceforge.net/DTD/sodipodi-0.dtd"
   xmlns:inkscape="http://www.inkscape.org/namespaces/inkscape"
   version="1.1"
   width="100"
   height="100"
   viewBox="0 0 100 100"
   id="Layer_1"
   xml:space="preserve"
   inkscape:version="0.48.3.1 r9886"
   sodipodi:docname="document_draft.svg"><sodipodi:namedview
   pagecolor="#ffffff"
   bordercolor="#666666"
   borderopacity="1"
   objecttolerance="10"
   gridtolerance="10"
   guidetolerance="10"
   inkscape:pageopacity="0"
   inkscape:pageshadow="2"
   inkscape:window-width="852"
   inkscape:window-height="966"
   id="namedview6"
   showgrid="false"
   inkscape:zoom="5.9445996"
   inkscape:cx="41.54172"
   inkscape:cy="44.844802"
   inkscape:window-x="27"
   inkscape:window-y="38"
   inkscape:window-maximized="0"
   inkscape:current-layer="Layer_1" /><metadata
   id="metadata9"><rdf:RDF><cc:Work
       rdf:about=""><dc:format>image/svg+xml</dc:format><dc:type
         rdf:resource="http://purl.org/dc/dcmitype/StillImage" /><dc:title></dc:title></cc:Work></rdf:RDF></metadata><defs
   id="defs7" />
<path
   d="M 66.118,13.377 H 26.987 c -2.627,0 -4.767,2.141 -4.767,4.768 v 68.213 c 0,2.63 2.14,4.768 4.767,4.768 h 47.932 c 2.63,0 4.768,-2.138 4.768,-4.768 V 28.12 L 66.118,13.377 z m 1.125,7.135 5.948,6.463 h -5.948 v -6.463 z m 8.441,65.845 c 0,0.421 -0.344,0.765 -0.765,0.765 H 26.987 c -0.421,0 -0.763,-0.344 -0.763,-0.765 V 18.145 c 0,-0.421 0.342,-0.762 0.763,-0.762 h 36.251 v 11.595 c 0,1.104 0.899,1.999 2.003,1.999 h 10.442 v 55.38 z"
   id="path3"
   style="fill:#ffff00"
   inkscape:export-filename="/home/dennis/Projects/rapuma/lib/rapuma/icon/document_draft-256.png"
   inkscape:export-xdpi="296.33823"
   inkscape:export-ydpi="296.33823" />
<text
   xml:space="preserve"
   style="font-size:17.39815520999999876px;font-style:normal;font-variant:normal;font-weight:normal;font-stretch:normal;text-align:start;line-height:125%;letter-spacing:0px;word-spacing:0px;writing-mode:lr-tb;text-anchor:start;fill:#000080;fill-opacity:1;stroke:none;font-family:Charis SIL;-inkscape-font-specification:Charis SIL"
   x="45.871567"
   y="7.4103508"
   id="text2983"
   sodipodi:linespacing="125%"
   transform="matrix(0.70710678,0.70710678,-0.70710678,0.70710678,0,0)"
   inkscape:export-filename="/home/dennis/Projects/rapuma/lib/rapuma/icon/document_draft-256.png"
   inkscape:export-xdpi="296.33823"
   inkscape:export-ydpi="296.33823"><tspan
     sodipodi:role="line"
     id="tspan2985"
     x="45.871567"
     y="7.4103508">DRAFT</tspan></text>

</svg>