<?xml version="1.0" encoding="UTF-8" standalone="no"?>
<!-- Generator: Adobe Illustrator 16.0.0, SVG Export Plug-In . SVG Version: 6.00 Build 0)  -->

<svg
   xmlns:dc="http://purl.org/dc/elements/1.1/"
   xmlns:cc="http://creativecommons.org/ns#"
   xmlns:rdf="http://www.w3.org/1999/02/22-rdf-syntax-ns#"
   xmlns:svg="http://www.w3.org/2000/svg"
   xmlns="http://www.w3.org/2000/svg"
   xmlns:sodipodi="http://sodipodi.sourceforge.net/DTD/sodipodi-0.dtd"
   xmlns:inkscape="http://www.inkscape.org/namespaces/inkscape"
   version="1.1"
   id="Layer_1"
   x="0px"
   y="0px"
   width="100px"
   height="100px"
   viewBox="0 0 100 100"
   enable-background="new 0 0 100 100"
   xml:space="preserve"
   inkscape:version="0.48.3.1 r9886"
   sodipodi:docname="document_final.svg"><metadata
   id="metadata9"><rdf:RDF><cc:Work
       rdf:about=""><dc:format>image/svg+xml</dc:format><dc:type
         rdf:resource="http://purl.org/dc/dcmitype/StillImage" /><dc:title></dc:title></cc:Work></rdf:RDF></metadata><defs
   id="defs7" /><sodipodi:namedview
   pagecolor="#ffffff"
   bordercolor="#666666"
   borderopacity="1"
   objecttolerance="10"
   gridtolerance="10"
   guidetolerance="10"
   inkscape:pageopacity="0"
   inkscape:pageshadow="2"
   inkscape:window-width="941"
   inkscape:window-height="852"
   id="namedview5"
   showgrid="false"
   inkscape:zoom="5.5235797"
   inkscape:cx="51.634874"
   inkscape:cy="52.817947"
   inkscape:window-x="0"
   inkscape:window-y="27"
   inkscape:window-maximized="0"
   inkscape:current-layer="Layer_1" />
<path
   d="M66.118,13.377H26.987c-2.627,0-4.767,2.141-4.767,4.768v68.213c0,2.63,2.14,4.768,4.767,4.768h47.932  c2.63,0,4.768-2.138,4.768-4.768V28.12L66.118,13.377z M67.243,20.512l5.948,6.463h-5.948V20.512z M75.684,86.357  c0,0.421-0.344,0.765-0.765,0.765H26.987c-0.421,0-0.763-0.344-0.763-0.765V18.145c0-0.421,0.342-0.762,0.763-0.762h36.251v11.595  c0,1.104,0.899,1.999,2.003,1.999h10.442V86.357z"
   id="path3"
   style="fill:#0000ff"
   inkscape:export-filename="/home/dennis/Projects/rapuma/lib/rapuma/icon/document_final-256.png"
   inkscape:export-xdpi="296.33823"
   inkscape:export-ydpi="296.33823" />
<text
   xml:space="preserve"
   style="font-size:20.87868308999999911px;font-style:normal;font-weight:normal;line-height:125%;letter-spacing:0px;word-spacing:0px;fill:#000080;fill-opacity:1;stroke:none;font-family:Sans"
   x="44.846317"
   y="6.6424985"
   id="text3049"
   sodipodi:linespacing="125%"
   transform="matrix(0.70710678,0.70710678,-0.70710678,0.70710678,0,0)"
   inkscape:export-xdpi="296.33823"
   inkscape:export-ydpi="296.33823"
   inkscape:export-filename="/home/dennis/Projects/rapuma/lib/rapuma/icon/document_final-256.png"><tspan
     sodipodi:role="line"
     id="tspan3051"
     x="44.846317"
     y="6.6424985"
     style="font-style:normal;font-variant:normal;font-weight:normal;font-stretch:normal;font-family:Charis SIL;-inkscape-font-specification:Charis SIL;fill:#000080">FINAL</tspan></text>

</svg>